<svg xmlns="http://www.w3.org/2000/svg" xmlns:xlink="http://www.w3.org/1999/xlink" width="63.488" height="61.222" viewBox="0 0 63.488 61.222">
  <defs>
    <clipPath id="clip-path">
      <rect id="Rectangle_2362" data-name="Rectangle 2362" width="63.488" height="61.222" fill="none"/>
    </clipPath>
  </defs>
  <g id="Group_5419" data-name="Group 5419" clip-path="url(#clip-path)">
    <path id="Path_12444" data-name="Path 12444" d="M75.052,119.3H55.211a3.389,3.389,0,0,1-.979-.121,1.059,1.059,0,0,1-.605-.455,1.035,1.035,0,0,1-.063-1.055,1.25,1.25,0,0,1,.425-.534.84.84,0,0,1,.514-.168c.132.005.264,0,.4,0H76.174a2.117,2.117,0,0,1,.3,0,1.275,1.275,0,0,0,1.166-.793,1.623,1.623,0,0,0-.113-1.537,1.24,1.24,0,0,0-1.009-.616,4.524,4.524,0,0,0-.495-.012H58.456c-.132,0-.264,0-.4,0a1.5,1.5,0,0,1-.63-.121.849.849,0,0,1-.556-.72,1.888,1.888,0,0,1-.015-.446.915.915,0,0,1,.63-.84,1.519,1.519,0,0,1,.535-.1H80.929c.2,0,.4,0,.594-.008a1.3,1.3,0,0,0,.825-.334,1.425,1.425,0,0,0,.481-1,1.613,1.613,0,0,0-.294-1.1,1.258,1.258,0,0,0-.9-.527,5.941,5.941,0,0,0-.691-.033H60.263c-.182,0-.363,0-.544-.006a1.187,1.187,0,0,1-.293-.049,1.052,1.052,0,0,1-.688-.742.947.947,0,0,1-.008-.553,1.059,1.059,0,0,1,.618-.75,1.848,1.848,0,0,1,.772-.17c.148.009.3,0,.444,0H71.6c.2,0,.4.005.594-.009a1.309,1.309,0,0,0,1.066-.975,1.564,1.564,0,0,0-.344-1.5,1.215,1.215,0,0,0-.929-.444c-.149,0-.3,0-.444,0H48.783c-.132,0-.264-.006-.4,0a.97.97,0,0,1-.825-.426,1.11,1.11,0,0,1-.214-.936.815.815,0,0,1,.177-.4c.081-.094.161-.187.248-.273a.57.57,0,0,1,.359-.17c.115-.009.23-.013.346-.014H78.264a1.414,1.414,0,0,0,.918-.364,1.576,1.576,0,0,0,.47-1.447,1.524,1.524,0,0,0-.665-1,1.213,1.213,0,0,0-.752-.23c-.132.005-.264,0-.4,0H57.16a.869.869,0,0,1-.6-.232.939.939,0,0,1-.327-.665,1.257,1.257,0,0,1,.2-.9.9.9,0,0,1,.722-.419H72A1.411,1.411,0,0,0,73.312,94.8c0-.094,0-.187.006-.28a1,1,0,0,0-.269-.754,1.175,1.175,0,0,1-.1-.125,1.252,1.252,0,0,0-.913-.494,4.276,4.276,0,0,0-.495-.009H48.685c-.165,0-.33,0-.494-.014a.95.95,0,0,1-.7-.47,1.216,1.216,0,0,1-.133-.912.891.891,0,0,1,.157-.346,1.049,1.049,0,0,1,.86-.475H74.5c.248,0,.495-.008.742-.005a1.12,1.12,0,0,0,.94-.529,1.53,1.53,0,0,0-.675-2.394,2.912,2.912,0,0,0-.489-.077c-.131-.013-.263,0-.4,0h-19.2c-.165,0-.33.005-.495-.005a.828.828,0,0,1-.647-.3,1.3,1.3,0,0,1,.089-1.632.618.618,0,0,1,.167-.117,1.934,1.934,0,0,1,.815-.207c.346.01.693,0,1.039,0H62.23c.165,0,.33,0,.494-.016a.4.4,0,0,0,.361-.392c.017-.148.022-.3.026-.447.008-.3,0-.6.018-.9a6.851,6.851,0,0,1,.152-1.388c.032-.125.036-.259.063-.386.045-.216.086-.437.149-.648.114-.39.239-.776.368-1.161A1.061,1.061,0,0,1,64,80.083c0-.006.032,0,.041.009a.07.07,0,0,1,.017.049q-.023.166-.05.331a4.181,4.181,0,0,0,.167,1.932,5.791,5.791,0,0,0,.321.88,4.659,4.659,0,0,0,.5.832c.254.321.508.634.79.927a6.128,6.128,0,0,0,1.669,1.186,6.472,6.472,0,0,0,1.518.489,1.624,1.624,0,0,0,.345.029c.412.009.825.019,1.237.019H95.336a5.6,5.6,0,0,1,1.182.1c.227.048.458.072.685.112a2.421,2.421,0,0,1,.333.1,1.822,1.822,0,0,0,.28.108,2.677,2.677,0,0,1,.83.35,7.375,7.375,0,0,1,1.714,1.313,6.661,6.661,0,0,1,1.4,2.216,5.258,5.258,0,0,1,.4,1.321,4.6,4.6,0,0,1,.222,1.6c.03.616.017,1.234.015,1.851,0,.336-.086.426-.387.436-.149.006-.3,0-.444,0H93.556c-.33,0-.66.008-.989.019a1.284,1.284,0,0,0-.343.047,6.452,6.452,0,0,0-1.7.762,5.328,5.328,0,0,0-1.39,1.332c-.063.087-.118.181-.184.264a5.987,5.987,0,0,0-.909,1.849,3,3,0,0,0-.084.38,2.728,2.728,0,0,1-.048.274,5.933,5.933,0,0,0-.1,2.112,8.709,8.709,0,0,0,.622,2.061,6.781,6.781,0,0,0,1.168,1.656,4.951,4.951,0,0,0,1.8,1.249,2.315,2.315,0,0,0,.9.268.29.29,0,0,1,.1.016,4.65,4.65,0,0,0,1.569.165q2.969.01,5.937,0c.709,0,1.418-.016,2.127-.023a1.458,1.458,0,0,1,.148.009.255.255,0,0,1,.218.26c.008.13.01.261.01.392,0,.561-.006,1.123,0,1.684s-.022,1.122-.073,1.681a6.215,6.215,0,0,1-.236,1.087,9.6,9.6,0,0,1-.762,1.883q-.024.049-.052.1a8.787,8.787,0,0,1-1.022,1.368,6.729,6.729,0,0,1-2.92,1.817,4.476,4.476,0,0,1-1.218.21,1.206,1.206,0,0,0-.343.037,2.649,2.649,0,0,1-.835.079H75.052" transform="translate(-44.036 -73.771)" fill="#fff"/>
    <path id="Path_12445" data-name="Path 12445" d="M669.656,323.668c-1.417,0-2.834-.009-4.254.005a6.017,6.017,0,0,1-1.423-.161,2.249,2.249,0,0,1-.766-.372,3.621,3.621,0,0,1-.884-.888,2.958,2.958,0,0,1-.539-1.3,3.747,3.747,0,0,0-.082-.381,2.529,2.529,0,0,1,.008-1.324,2.473,2.473,0,0,0,.074-.325,3.026,3.026,0,0,1,.663-1.473,3.71,3.71,0,0,1,1.281-1.025.163.163,0,0,1,.046-.02,5.287,5.287,0,0,1,1.359-.253h9.142a2.05,2.05,0,0,1,1,.257.559.559,0,0,1,.164.122,1.93,1.93,0,0,1,.617.924,1.554,1.554,0,0,1,.154.807c0,1.1,0,2.2,0,3.308q0,.168-.006.336a1.3,1.3,0,0,1-.055.271c-.033.105-.087.2-.117.308a1.66,1.66,0,0,1-1.491,1.178c-.148.006-.3.006-.444.006h-4.449Zm-4.522-6.539a1.734,1.734,0,0,0-1.11.349,2.778,2.778,0,0,0-.87.9,4.422,4.422,0,0,0-.431,1.125.845.845,0,0,0-.026.222,1.953,1.953,0,0,0,.138.982.805.805,0,0,1,.048.159,2.58,2.58,0,0,0,1,1.409,1.134,1.134,0,0,0,.538.269.906.906,0,0,1,.232.092,1.216,1.216,0,0,0,1.012,0c.107-.046.218-.079.328-.12a1.105,1.105,0,0,0,.185-.076,3.053,3.053,0,0,0,1.445-2.092,1.986,1.986,0,0,0-.04-1c-.053-.176-.108-.354-.173-.525a1.745,1.745,0,0,0-.191-.392,2.665,2.665,0,0,0-1.26-1.122,1.292,1.292,0,0,0-.825-.187" transform="translate(-615.693 -291.246)" fill="#5eab15"/>
    <path id="Path_12446" data-name="Path 12446" d="M423.578,77.187H413.492c-.164,0-.329-.009-.493-.017-.011,0-.033-.022-.032-.032a.149.149,0,0,1,.023-.094,2.332,2.332,0,0,1,.836-.467q.83-.269,1.662-.534l6.657-2.1q3.873-1.224,7.753-2.436a4.174,4.174,0,0,1,.724-.166,2.3,2.3,0,0,1,1.021.16,3.65,3.65,0,0,1,1.8,1.421,5.632,5.632,0,0,1,.889,2.1,6.841,6.841,0,0,1,.1,1.839.576.576,0,0,1-.039.161.222.222,0,0,1-.181.168c-.164.013-.329.021-.493.02q-2.324,0-4.647-.007h-5.488Z" transform="translate(-384.296 -65.71)" fill="#125eab"/>
    <path id="Path_12447" data-name="Path 12447" d="M356.06,0a3.587,3.587,0,0,1,1.488.367,4.365,4.365,0,0,1,1.764,1.666A5.153,5.153,0,0,1,360,3.756c.043.216.058.442.083.664a.211.211,0,0,1-.1.179c-.127.046-.25.091-.377.132l-8.942,2.818L342.2,10.219l-2.52.792a.876.876,0,0,1-.195.035c-.026,0-.073-.019-.076-.035a.157.157,0,0,1,.029-.1,2.908,2.908,0,0,1,.635-.619q.19-.134.381-.264L354.3.677c.127-.086.254-.171.385-.253A2.991,2.991,0,0,1,356.06,0" transform="translate(-315.848)" fill="#5eab15"/>
    <path id="Path_12452" data-name="Path 12452" d="M714.142,62.533h1.137a2.165,2.165,0,0,1,.587.086c.208.058.42.094.626.161a6.488,6.488,0,0,1,.748.284,6.579,6.579,0,0,1,1.22.732,7.744,7.744,0,0,1,1.29,1.215,8.022,8.022,0,0,1,1.263,2.194c.154.394.236.816.367,1.219a1.17,1.17,0,0,1,.041.216c.044.351.09.7.127,1.055a5.532,5.532,0,0,1,.04.558c.005.691,0,1.383,0,2.075,0,.056-.006.112-.009.168a.209.209,0,0,1-.114.168.212.212,0,0,1-.231-.051.473.473,0,0,1-.084-.135A8.012,8.012,0,0,0,719.566,70a6.388,6.388,0,0,0-2.835-1.86c-.239-.072-.476-.149-.715-.223a.321.321,0,0,1-.228-.323c-.011-.167-.027-.335-.05-.5a4.019,4.019,0,0,0-1.138-2.36l-1.841-1.872c-.049-.05-.093-.1-.139-.158-.025-.03.005-.135.041-.144a1.611,1.611,0,0,1,.243-.033h1.236Z" transform="translate(-663.138 -57.601)" fill="#5eab15"/>
    <path id="Path_12457" data-name="Path 12457" d="M142.733,418.033h-.889a.965.965,0,0,1-.667-.32,1.228,1.228,0,0,1-.234-1.01,1.089,1.089,0,0,1,.6-.79,1.938,1.938,0,0,1,.776-.144,7.276,7.276,0,0,0,.742,0,2.634,2.634,0,0,1,.926.148,1.048,1.048,0,0,1,.663,1.211.277.277,0,0,1-.011.055.944.944,0,0,1-.821.839,3.759,3.759,0,0,1-.592.019h-.495Z" transform="translate(-131.136 -383.022)" fill="#125eab"/>
  </g>
</svg>
