<svg xmlns="http://www.w3.org/2000/svg" xmlns:xlink="http://www.w3.org/1999/xlink" width="580.847" height="137.016" viewBox="0 0 580.847 137.016">
  <defs>
    <clipPath id="clip-path">
      <rect id="Rectangle_2362" data-name="Rectangle 2362" width="142.087" height="137.016" transform="translate(0 0)" fill="none"/>
    </clipPath>
  </defs>
  <g id="Logo" transform="translate(-48.913 59.119)">
    <path id="Logo-2" data-name="Logo" d="M34.65-50.12H45.01v33.18q0,8.19-4.9,12.6Q34.51.77,25.13.77T10.15-4.34q-4.9-4.41-4.9-12.6V-50.12H15.54v33.18q0,8.89,9.59,8.89,9.52,0,9.52-8.89ZM69.86-20.58v7.21H52.57v-7.21ZM122.64,0H113.4l-8.47-39.06L96.81,0H87.5L73.36-50.12H84.28l7.77,37.59,7.77-37.59h10.15l8.12,37.66,7.49-37.66H136.5Zm50.75-2.45V0h-10.5a6.276,6.276,0,0,1-1.12-3.78Q157.92.77,150.57.77a11.735,11.735,0,0,1-8.68-3.29,9.933,9.933,0,0,1-2.66-7.35q0-7,5.6-9.94,2.38-1.26,9.45-2.52l7.56-1.4-.07-2.66q-.07-3.71-5.6-3.71-3.57,0-5.005,1.085a5.585,5.585,0,0,0-1.785,3.955h-9.24q.84-12.81,15.82-12.81,8.26,0,11.9,2.94,3.29,2.8,3.29,8.47V-5.74A3.146,3.146,0,0,0,173.39-2.45ZM161.84-17.92l-7.07,1.61a10.021,10.021,0,0,0-4.48,2.03,4.356,4.356,0,0,0-1.4,3.29q0,3.99,5.18,3.99,7.49,0,7.7-8.19Zm27.86-32.2V0h-9.66V-50.12Zm19.11,0V0h-9.66V-50.12Zm41.58,34.09H225.47q.21,4.48,1.4,6.37,2.03,3.08,6.37,3.08,5.39,0,7.21-4.48h9.52a15.471,15.471,0,0,1-6.265,8.645A18.8,18.8,0,0,1,232.82.77q-8.47,0-13.02-5.67-3.99-4.97-3.99-13.09,0-9.87,5.18-15.26,4.55-4.62,11.97-4.62a17.713,17.713,0,0,1,9.94,2.8,15.3,15.3,0,0,1,6.09,7.84,26.979,26.979,0,0,1,1.47,9.45Q250.46-17.08,250.39-16.03ZM240.38-22.4q-.7-8.12-7.49-8.12-6.37,0-7.28,8.12Zm34.44-14.7v6.37h-6.51v20.65a4.073,4.073,0,0,0,.735,2.8,3.682,3.682,0,0,0,2.695.77,9.84,9.84,0,0,0,4.13-1.26,3.427,3.427,0,0,1,.35-.21l1.12,6.58A20.671,20.671,0,0,1,268.1.77q-9.45,0-9.45-8.68V-30.73h-4.76V-37.1h4.76v-6.16l9.66-5.53V-37.1ZM333.83-35h-9.66q-.49-7.63-10.5-7.63a11.027,11.027,0,0,0-6.335,1.61,5.012,5.012,0,0,0-2.345,4.34,4.5,4.5,0,0,0,1.96,3.99q1.96,1.33,7.56,2.38l7.84,1.47q6.93,1.33,10.08,4.55t3.15,9.1q0,8.05-6.16,12.25Q324.1.77,315.07.77q-10.29,0-15.68-4.76-4.69-4.13-5.11-11.48h10.01q.56,7.98,11.27,7.98A13.827,13.827,0,0,0,323.015-9.2a5.331,5.331,0,0,0,2.7-4.725,5.365,5.365,0,0,0-2.135-4.55q-2.135-1.61-7.315-2.59l-7-1.33q-7.63-1.4-10.885-4.445T295.12-35.63q0-7.77,5.67-11.76,4.9-3.5,13.3-3.5,10.15,0,15.26,4.62Q333.76-42.21,333.83-35Zm31.22-2.1h9.87L359.66,6.72q-1.61,4.69-4.27,6.475t-7.91,1.785q-4.83,0-6.72-1.26l1.47-6.51a17.944,17.944,0,0,0,4.2.63,5.916,5.916,0,0,0,4.2-1.645,5.162,5.162,0,0,0,1.75-3.885V1.54L338.59-37.1h10.57l8.26,27.02Zm46.34,10.92h-9.8a3.582,3.582,0,0,0-1.61-3.185q-1.54-.945-5.32-.945-5.53,0-5.53,3.22,0,1.89,3.36,2.8l12.18,3.43q7.28,2.03,7.28,9.24a11.148,11.148,0,0,1-4.41,9.17Q403.41.77,395.64.77q-9.52,0-13.65-2.8-4.06-2.66-4.34-8.61h9.59a3.926,3.926,0,0,0,1.995,3.08q1.575.77,5.845.77,7.21,0,7.21-3.43,0-2.03-3.22-3.01l-11.48-3.5q-4.41-1.33-6.02-3.08a8.1,8.1,0,0,1-2.1-5.88,10.826,10.826,0,0,1,4.62-9.38q4.06-2.8,10.64-2.8,7.98,0,12.6,3.57A10.079,10.079,0,0,1,411.39-26.18Zm12.32,17.5a4.446,4.446,0,0,1,3.22,1.3A4.271,4.271,0,0,1,428.26-4.2a4.386,4.386,0,0,1-1.33,3.22A4.386,4.386,0,0,1,423.71.35a4.305,4.305,0,0,1-3.15-1.33,4.386,4.386,0,0,1-1.33-3.22,4.329,4.329,0,0,1,1.3-3.185A4.329,4.329,0,0,1,423.71-8.68Z" transform="translate(201.5 27.344)" fill="#fff"/>
    <g id="Group_5419" data-name="Group 5419" transform="translate(48.913 -59.119)" clip-path="url(#clip-path)">
      <path id="Path_12444" data-name="Path 12444" d="M109.383,167.854H64.978a7.584,7.584,0,0,1-2.191-.271,2.371,2.371,0,0,1-1.354-1.019,2.315,2.315,0,0,1-.142-2.361,2.8,2.8,0,0,1,.951-1.2,1.88,1.88,0,0,1,1.149-.375c.3.011.591,0,.885,0h47.618a4.739,4.739,0,0,1,.664,0,2.853,2.853,0,0,0,2.609-1.775,3.633,3.633,0,0,0-.252-3.439,2.776,2.776,0,0,0-2.258-1.378,10.13,10.13,0,0,0-1.107-.026H72.24c-.3,0-.591-.01-.885,0a3.361,3.361,0,0,1-1.411-.271,1.9,1.9,0,0,1-1.245-1.612,4.226,4.226,0,0,1-.033-1,2.048,2.048,0,0,1,1.41-1.881,3.4,3.4,0,0,1,1.2-.221h51.264c.443,0,.887,0,1.329-.018a2.906,2.906,0,0,0,1.847-.748,3.19,3.19,0,0,0,1.077-2.245,3.61,3.61,0,0,0-.658-2.456,2.816,2.816,0,0,0-2.01-1.178,13.294,13.294,0,0,0-1.547-.074H76.285c-.406,0-.813,0-1.218-.013a2.656,2.656,0,0,1-.655-.11,2.354,2.354,0,0,1-1.539-1.662,2.12,2.12,0,0,1-.017-1.238,2.369,2.369,0,0,1,1.384-1.679,4.135,4.135,0,0,1,1.728-.38c.331.021.664,0,.995,0h24.7c.443,0,.887.011,1.328-.021a2.929,2.929,0,0,0,2.386-2.181,3.5,3.5,0,0,0-.771-3.364,2.719,2.719,0,0,0-2.08-.994c-.332.01-.664,0-.995,0H50.592c-.3,0-.591-.013-.885,0a2.172,2.172,0,0,1-1.847-.952,2.483,2.483,0,0,1-.479-2.1,1.824,1.824,0,0,1,.4-.885c.18-.209.361-.419.556-.611a1.276,1.276,0,0,1,.8-.38c.257-.021.516-.029.774-.032h66.663a3.165,3.165,0,0,0,2.055-.815,3.528,3.528,0,0,0,1.053-3.239,3.411,3.411,0,0,0-1.488-2.229,2.714,2.714,0,0,0-1.684-.514c-.3.011-.591,0-.885,0H69.34A1.946,1.946,0,0,1,68,120.4a2.1,2.1,0,0,1-.732-1.489,2.813,2.813,0,0,1,.453-2.008,2.005,2.005,0,0,1,1.616-.938h33.22a3.158,3.158,0,0,0,2.928-2.952c.009-.21.009-.417.013-.627a2.233,2.233,0,0,0-.6-1.687,2.629,2.629,0,0,1-.223-.279,2.8,2.8,0,0,0-2.043-1.106,9.572,9.572,0,0,0-1.107-.021H50.374c-.369,0-.739,0-1.105-.032a2.127,2.127,0,0,1-1.57-1.052,2.722,2.722,0,0,1-.3-2.041,1.994,1.994,0,0,1,.352-.774,2.348,2.348,0,0,1,1.924-1.062h58.468c.554,0,1.107-.018,1.661-.011a2.506,2.506,0,0,0,2.1-1.183,3.424,3.424,0,0,0-1.51-5.357,6.516,6.516,0,0,0-1.094-.172c-.293-.029-.59-.01-.885-.01H65.45c-.369,0-.739.011-1.107-.011a1.854,1.854,0,0,1-1.449-.676,2.9,2.9,0,0,1,.2-3.653A1.384,1.384,0,0,1,63.468,93a4.327,4.327,0,0,1,1.823-.463c.774.023,1.55,0,2.326,0H80.689c.369,0,.739,0,1.105-.035a.9.9,0,0,0,.807-.877c.037-.332.05-.667.058-1,.017-.669.009-1.341.04-2.01a15.333,15.333,0,0,1,.34-3.107c.072-.279.081-.579.142-.864.1-.483.193-.978.332-1.45.256-.873.536-1.737.823-2.6a2.375,2.375,0,0,1,.3-.506c.009-.013.071,0,.091.019a.156.156,0,0,1,.037.11q-.051.372-.112.741a9.358,9.358,0,0,0,.374,4.324,12.959,12.959,0,0,0,.719,1.969,10.427,10.427,0,0,0,1.114,1.863c.568.719,1.137,1.42,1.768,2.076a13.715,13.715,0,0,0,3.736,2.654,14.485,14.485,0,0,0,3.4,1.094,3.635,3.635,0,0,0,.772.064c.922.019,1.847.044,2.768.044h55.478a12.537,12.537,0,0,1,2.646.218c.507.108,1.024.161,1.533.251a5.421,5.421,0,0,1,.745.219,4.077,4.077,0,0,0,.627.242,5.991,5.991,0,0,1,1.858.783,16.5,16.5,0,0,1,3.836,2.938,14.908,14.908,0,0,1,3.139,4.96,11.767,11.767,0,0,1,.905,2.956,10.286,10.286,0,0,1,.5,3.57c.067,1.378.038,2.762.033,4.143,0,.753-.193.952-.867.977-.332.013-.665,0-.995,0H150.8c-.737,0-1.476.018-2.214.042a2.872,2.872,0,0,0-.767.1,14.439,14.439,0,0,0-3.8,1.705,11.923,11.923,0,0,0-3.112,2.981c-.142.2-.264.4-.412.59a13.4,13.4,0,0,0-2.035,4.139,6.709,6.709,0,0,0-.188.851,6.107,6.107,0,0,1-.107.614,13.279,13.279,0,0,0-.234,4.727,19.491,19.491,0,0,0,1.392,4.612,15.176,15.176,0,0,0,2.613,3.707,11.079,11.079,0,0,0,4.024,2.8,5.182,5.182,0,0,0,2.022.6.648.648,0,0,1,.219.035,10.408,10.408,0,0,0,3.511.369q6.644.023,13.288,0c1.587,0,3.173-.035,4.76-.052a3.266,3.266,0,0,1,.331.021.571.571,0,0,1,.487.582c.017.292.023.585.023.878,0,1.255-.014,2.512,0,3.768s-.049,2.512-.163,3.761a13.908,13.908,0,0,1-.529,2.434,21.489,21.489,0,0,1-1.705,4.214q-.053.11-.117.213a19.665,19.665,0,0,1-2.288,3.062,15.06,15.06,0,0,1-6.536,4.066,10.017,10.017,0,0,1-2.727.471,2.7,2.7,0,0,0-.769.082,5.93,5.93,0,0,1-1.868.177H109.383" transform="translate(-39.969 -65.96)" fill="#fff"/>
      <path id="Path_12445" data-name="Path 12445" d="M679.6,332.975c-3.172,0-6.343-.019-9.52.011a13.468,13.468,0,0,1-3.184-.359,5.033,5.033,0,0,1-1.715-.832,8.1,8.1,0,0,1-1.978-1.987A6.62,6.62,0,0,1,662,326.895a8.369,8.369,0,0,0-.183-.853,5.661,5.661,0,0,1,.018-2.964,5.517,5.517,0,0,0,.166-.727,6.774,6.774,0,0,1,1.484-3.3,8.3,8.3,0,0,1,2.867-2.293.365.365,0,0,1,.1-.045,11.833,11.833,0,0,1,3.04-.566h20.461a4.588,4.588,0,0,1,2.239.575,1.253,1.253,0,0,1,.367.274,4.319,4.319,0,0,1,1.38,2.068,3.478,3.478,0,0,1,.344,1.807c-.01,2.467,0,4.935,0,7.4q.01.377-.015.753a2.9,2.9,0,0,1-.124.606c-.074.235-.194.453-.262.69a3.715,3.715,0,0,1-3.337,2.636c-.331.014-.663.014-.995.014H679.6ZM669.48,318.34a3.88,3.88,0,0,0-2.485.78,6.217,6.217,0,0,0-1.948,2.015,9.9,9.9,0,0,0-.965,2.517,1.892,1.892,0,0,0-.057.5,4.37,4.37,0,0,0,.308,2.2,1.8,1.8,0,0,1,.106.355,5.774,5.774,0,0,0,2.242,3.154,2.539,2.539,0,0,0,1.2.6,2.026,2.026,0,0,1,.519.206,2.722,2.722,0,0,0,2.265.008c.24-.1.489-.177.733-.269a2.479,2.479,0,0,0,.413-.171,6.832,6.832,0,0,0,3.234-4.682,4.443,4.443,0,0,0-.089-2.227c-.12-.395-.242-.791-.388-1.175a3.907,3.907,0,0,0-.426-.877,5.965,5.965,0,0,0-2.82-2.511,2.891,2.891,0,0,0-1.847-.418" transform="translate(-558.828 -260.414)" fill="#5eab15"/>
      <path id="Path_12446" data-name="Path 12446" d="M436.714,84.435H414.142c-.368,0-.736-.021-1.1-.037-.026,0-.074-.05-.071-.073a.332.332,0,0,1,.052-.211,5.219,5.219,0,0,1,1.871-1.046q1.858-.6,3.72-1.2,7.448-2.355,14.9-4.7,8.667-2.74,17.352-5.452a9.341,9.341,0,0,1,1.621-.371,5.148,5.148,0,0,1,2.285.358,8.168,8.168,0,0,1,4.02,3.18,12.605,12.605,0,0,1,1.989,4.709,15.311,15.311,0,0,1,.215,4.116,1.289,1.289,0,0,1-.088.359.5.5,0,0,1-.405.376c-.367.029-.736.047-1.1.045q-5.2,0-10.4-.016H436.711Z" transform="translate(-348.8 -58.75)" fill="#125eab"/>
      <path id="Path_12447" data-name="Path 12447" d="M376.67,0A8.027,8.027,0,0,1,380,.82a9.768,9.768,0,0,1,3.949,3.728,11.533,11.533,0,0,1,1.55,3.858c.1.483.131.99.186,1.486a.471.471,0,0,1-.229.4c-.284.1-.56.2-.844.295L364.6,16.893q-9.473,2.986-18.945,5.977-2.821.89-5.639,1.773a1.96,1.96,0,0,1-.436.077c-.058,0-.163-.042-.169-.077a.352.352,0,0,1,.064-.224,6.509,6.509,0,0,1,1.421-1.386q.426-.3.853-.59L372.742,1.515c.284-.193.568-.384.861-.567A6.7,6.7,0,0,1,376.67,0" transform="translate(-286.675 0)" fill="#5eab15"/>
      <path id="Path_12452" data-name="Path 12452" d="M716.036,62.55h2.545a4.846,4.846,0,0,1,1.313.192c.465.129.941.211,1.4.361a14.511,14.511,0,0,1,1.674.637,14.725,14.725,0,0,1,2.731,1.637,17.332,17.332,0,0,1,2.887,2.719,17.953,17.953,0,0,1,2.828,4.911c.345.882.527,1.826.821,2.728a2.622,2.622,0,0,1,.092.483c.1.786.2,1.573.284,2.361a12.332,12.332,0,0,1,.09,1.249c.011,1.547.007,3.1.007,4.643,0,.126-.013.25-.021.376a.467.467,0,0,1-.255.375.475.475,0,0,1-.517-.114,1.058,1.058,0,0,1-.189-.3,17.931,17.931,0,0,0-3.552-5.55,14.3,14.3,0,0,0-6.344-4.163c-.534-.161-1.066-.334-1.6-.5a.719.719,0,0,1-.51-.724c-.026-.374-.061-.749-.111-1.128a8.994,8.994,0,0,0-2.546-5.281q-2.059-2.1-4.12-4.19c-.109-.111-.209-.234-.31-.353-.057-.066.011-.3.093-.322a3.6,3.6,0,0,1,.544-.074h2.767Z" transform="translate(-601.887 -51.513)" fill="#5eab15"/>
      <path id="Path_12457" data-name="Path 12457" d="M144.98,420.836h-1.989a2.161,2.161,0,0,1-1.492-.716,2.748,2.748,0,0,1-.524-2.261,2.437,2.437,0,0,1,1.349-1.768,4.339,4.339,0,0,1,1.736-.322,16.272,16.272,0,0,0,1.66,0,5.894,5.894,0,0,1,2.072.332,2.345,2.345,0,0,1,1.485,2.711.619.619,0,0,1-.024.123,2.112,2.112,0,0,1-1.837,1.878,8.416,8.416,0,0,1-1.326.044h-1.107Z" transform="translate(-119.025 -342.482)" fill="#125eab"/>
    </g>
    <g id="Group_5419-2" data-name="Group 5419" transform="translate(48.913 -59.119)" clip-path="url(#clip-path)">
      <path id="Path_12444-2" data-name="Path 12444" d="M109.383,167.854H64.978a7.584,7.584,0,0,1-2.191-.271,2.371,2.371,0,0,1-1.354-1.019,2.315,2.315,0,0,1-.142-2.361,2.8,2.8,0,0,1,.951-1.2,1.88,1.88,0,0,1,1.149-.375c.3.011.591,0,.885,0h47.618a4.739,4.739,0,0,1,.664,0,2.853,2.853,0,0,0,2.609-1.775,3.633,3.633,0,0,0-.252-3.439,2.776,2.776,0,0,0-2.258-1.378,10.13,10.13,0,0,0-1.107-.026H72.24c-.3,0-.591-.01-.885,0a3.361,3.361,0,0,1-1.411-.271,1.9,1.9,0,0,1-1.245-1.612,4.226,4.226,0,0,1-.033-1,2.048,2.048,0,0,1,1.41-1.881,3.4,3.4,0,0,1,1.2-.221h51.264c.443,0,.887,0,1.329-.018a2.906,2.906,0,0,0,1.847-.748,3.19,3.19,0,0,0,1.077-2.245,3.61,3.61,0,0,0-.658-2.456,2.816,2.816,0,0,0-2.01-1.178,13.294,13.294,0,0,0-1.547-.074H76.285c-.406,0-.813,0-1.218-.013a2.656,2.656,0,0,1-.655-.11,2.354,2.354,0,0,1-1.539-1.662,2.12,2.12,0,0,1-.017-1.238,2.369,2.369,0,0,1,1.384-1.679,4.135,4.135,0,0,1,1.728-.38c.331.021.664,0,.995,0h24.7c.443,0,.887.011,1.328-.021a2.929,2.929,0,0,0,2.386-2.181,3.5,3.5,0,0,0-.771-3.364,2.719,2.719,0,0,0-2.08-.994c-.332.01-.664,0-.995,0H50.592c-.3,0-.591-.013-.885,0a2.172,2.172,0,0,1-1.847-.952,2.483,2.483,0,0,1-.479-2.1,1.824,1.824,0,0,1,.4-.885c.18-.209.361-.419.556-.611a1.276,1.276,0,0,1,.8-.38c.257-.021.516-.029.774-.032h66.663a3.165,3.165,0,0,0,2.055-.815,3.528,3.528,0,0,0,1.053-3.239,3.411,3.411,0,0,0-1.488-2.229,2.714,2.714,0,0,0-1.684-.514c-.3.011-.591,0-.885,0H69.34A1.946,1.946,0,0,1,68,120.4a2.1,2.1,0,0,1-.732-1.489,2.813,2.813,0,0,1,.453-2.008,2.005,2.005,0,0,1,1.616-.938h33.22a3.158,3.158,0,0,0,2.928-2.952c.009-.21.009-.417.013-.627a2.233,2.233,0,0,0-.6-1.687,2.629,2.629,0,0,1-.223-.279,2.8,2.8,0,0,0-2.043-1.106,9.572,9.572,0,0,0-1.107-.021H50.374c-.369,0-.739,0-1.105-.032a2.127,2.127,0,0,1-1.57-1.052,2.722,2.722,0,0,1-.3-2.041,1.994,1.994,0,0,1,.352-.774,2.348,2.348,0,0,1,1.924-1.062h58.468c.554,0,1.107-.018,1.661-.011a2.506,2.506,0,0,0,2.1-1.183,3.424,3.424,0,0,0-1.51-5.357,6.516,6.516,0,0,0-1.094-.172c-.293-.029-.59-.01-.885-.01H65.45c-.369,0-.739.011-1.107-.011a1.854,1.854,0,0,1-1.449-.676,2.9,2.9,0,0,1,.2-3.653A1.384,1.384,0,0,1,63.468,93a4.327,4.327,0,0,1,1.823-.463c.774.023,1.55,0,2.326,0H80.689c.369,0,.739,0,1.105-.035a.9.9,0,0,0,.807-.877c.037-.332.05-.667.058-1,.017-.669.009-1.341.04-2.01a15.333,15.333,0,0,1,.34-3.107c.072-.279.081-.579.142-.864.1-.483.193-.978.332-1.45.256-.873.536-1.737.823-2.6a2.375,2.375,0,0,1,.3-.506c.009-.013.071,0,.091.019a.156.156,0,0,1,.037.11q-.051.372-.112.741a9.358,9.358,0,0,0,.374,4.324,12.959,12.959,0,0,0,.719,1.969,10.427,10.427,0,0,0,1.114,1.863c.568.719,1.137,1.42,1.768,2.076a13.715,13.715,0,0,0,3.736,2.654,14.485,14.485,0,0,0,3.4,1.094,3.635,3.635,0,0,0,.772.064c.922.019,1.847.044,2.768.044h55.478a12.537,12.537,0,0,1,2.646.218c.507.108,1.024.161,1.533.251a5.421,5.421,0,0,1,.745.219,4.077,4.077,0,0,0,.627.242,5.991,5.991,0,0,1,1.858.783,16.5,16.5,0,0,1,3.836,2.938,14.908,14.908,0,0,1,3.139,4.96,11.767,11.767,0,0,1,.905,2.956,10.286,10.286,0,0,1,.5,3.57c.067,1.378.038,2.762.033,4.143,0,.753-.193.952-.867.977-.332.013-.665,0-.995,0H150.8c-.737,0-1.476.018-2.214.042a2.872,2.872,0,0,0-.767.1,14.439,14.439,0,0,0-3.8,1.705,11.923,11.923,0,0,0-3.112,2.981c-.142.2-.264.4-.412.59a13.4,13.4,0,0,0-2.035,4.139,6.709,6.709,0,0,0-.188.851,6.107,6.107,0,0,1-.107.614,13.279,13.279,0,0,0-.234,4.727,19.491,19.491,0,0,0,1.392,4.612,15.176,15.176,0,0,0,2.613,3.707,11.079,11.079,0,0,0,4.024,2.8,5.182,5.182,0,0,0,2.022.6.648.648,0,0,1,.219.035,10.408,10.408,0,0,0,3.511.369q6.644.023,13.288,0c1.587,0,3.173-.035,4.76-.052a3.266,3.266,0,0,1,.331.021.571.571,0,0,1,.487.582c.017.292.023.585.023.878,0,1.255-.014,2.512,0,3.768s-.049,2.512-.163,3.761a13.908,13.908,0,0,1-.529,2.434,21.489,21.489,0,0,1-1.705,4.214q-.053.11-.117.213a19.665,19.665,0,0,1-2.288,3.062,15.06,15.06,0,0,1-6.536,4.066,10.017,10.017,0,0,1-2.727.471,2.7,2.7,0,0,0-.769.082,5.93,5.93,0,0,1-1.868.177H109.383" transform="translate(-39.969 -65.96)" fill="#fff"/>
      <path id="Path_12445-2" data-name="Path 12445" d="M679.6,332.975c-3.172,0-6.343-.019-9.52.011a13.468,13.468,0,0,1-3.184-.359,5.033,5.033,0,0,1-1.715-.832,8.1,8.1,0,0,1-1.978-1.987A6.62,6.62,0,0,1,662,326.895a8.369,8.369,0,0,0-.183-.853,5.661,5.661,0,0,1,.018-2.964,5.517,5.517,0,0,0,.166-.727,6.774,6.774,0,0,1,1.484-3.3,8.3,8.3,0,0,1,2.867-2.293.365.365,0,0,1,.1-.045,11.833,11.833,0,0,1,3.04-.566h20.461a4.588,4.588,0,0,1,2.239.575,1.253,1.253,0,0,1,.367.274,4.319,4.319,0,0,1,1.38,2.068,3.478,3.478,0,0,1,.344,1.807c-.01,2.467,0,4.935,0,7.4q.01.377-.015.753a2.9,2.9,0,0,1-.124.606c-.074.235-.194.453-.262.69a3.715,3.715,0,0,1-3.337,2.636c-.331.014-.663.014-.995.014H679.6ZM669.48,318.34a3.88,3.88,0,0,0-2.485.78,6.217,6.217,0,0,0-1.948,2.015,9.9,9.9,0,0,0-.965,2.517,1.892,1.892,0,0,0-.057.5,4.37,4.37,0,0,0,.308,2.2,1.8,1.8,0,0,1,.106.355,5.774,5.774,0,0,0,2.242,3.154,2.539,2.539,0,0,0,1.2.6,2.026,2.026,0,0,1,.519.206,2.722,2.722,0,0,0,2.265.008c.24-.1.489-.177.733-.269a2.479,2.479,0,0,0,.413-.171,6.832,6.832,0,0,0,3.234-4.682,4.443,4.443,0,0,0-.089-2.227c-.12-.395-.242-.791-.388-1.175a3.907,3.907,0,0,0-.426-.877,5.965,5.965,0,0,0-2.82-2.511,2.891,2.891,0,0,0-1.847-.418" transform="translate(-558.828 -260.414)" fill="#5eab15"/>
      <path id="Path_12446-2" data-name="Path 12446" d="M436.714,84.435H414.142c-.368,0-.736-.021-1.1-.037-.026,0-.074-.05-.071-.073a.332.332,0,0,1,.052-.211,5.219,5.219,0,0,1,1.871-1.046q1.858-.6,3.72-1.2,7.448-2.355,14.9-4.7,8.667-2.74,17.352-5.452a9.341,9.341,0,0,1,1.621-.371,5.148,5.148,0,0,1,2.285.358,8.168,8.168,0,0,1,4.02,3.18,12.605,12.605,0,0,1,1.989,4.709,15.311,15.311,0,0,1,.215,4.116,1.289,1.289,0,0,1-.088.359.5.5,0,0,1-.405.376c-.367.029-.736.047-1.1.045q-5.2,0-10.4-.016H436.711Z" transform="translate(-348.8 -58.75)" fill="#125eab"/>
      <path id="Path_12447-2" data-name="Path 12447" d="M376.67,0A8.027,8.027,0,0,1,380,.82a9.768,9.768,0,0,1,3.949,3.728,11.533,11.533,0,0,1,1.55,3.858c.1.483.131.99.186,1.486a.471.471,0,0,1-.229.4c-.284.1-.56.2-.844.295L364.6,16.893q-9.473,2.986-18.945,5.977-2.821.89-5.639,1.773a1.96,1.96,0,0,1-.436.077c-.058,0-.163-.042-.169-.077a.352.352,0,0,1,.064-.224,6.509,6.509,0,0,1,1.421-1.386q.426-.3.853-.59L372.742,1.515c.284-.193.568-.384.861-.567A6.7,6.7,0,0,1,376.67,0" transform="translate(-286.675 0)" fill="#5eab15"/>
      <path id="Path_12452-2" data-name="Path 12452" d="M716.036,62.55h2.545a4.846,4.846,0,0,1,1.313.192c.465.129.941.211,1.4.361a14.511,14.511,0,0,1,1.674.637,14.725,14.725,0,0,1,2.731,1.637,17.332,17.332,0,0,1,2.887,2.719,17.953,17.953,0,0,1,2.828,4.911c.345.882.527,1.826.821,2.728a2.622,2.622,0,0,1,.092.483c.1.786.2,1.573.284,2.361a12.332,12.332,0,0,1,.09,1.249c.011,1.547.007,3.1.007,4.643,0,.126-.013.25-.021.376a.467.467,0,0,1-.255.375.475.475,0,0,1-.517-.114,1.058,1.058,0,0,1-.189-.3,17.931,17.931,0,0,0-3.552-5.55,14.3,14.3,0,0,0-6.344-4.163c-.534-.161-1.066-.334-1.6-.5a.719.719,0,0,1-.51-.724c-.026-.374-.061-.749-.111-1.128a8.994,8.994,0,0,0-2.546-5.281q-2.059-2.1-4.12-4.19c-.109-.111-.209-.234-.31-.353-.057-.066.011-.3.093-.322a3.6,3.6,0,0,1,.544-.074h2.767Z" transform="translate(-601.887 -51.513)" fill="#5eab15"/>
      <path id="Path_12457-2" data-name="Path 12457" d="M144.98,420.836h-1.989a2.161,2.161,0,0,1-1.492-.716,2.748,2.748,0,0,1-.524-2.261,2.437,2.437,0,0,1,1.349-1.768,4.339,4.339,0,0,1,1.736-.322,16.272,16.272,0,0,0,1.66,0,5.894,5.894,0,0,1,2.072.332,2.345,2.345,0,0,1,1.485,2.711.619.619,0,0,1-.024.123,2.112,2.112,0,0,1-1.837,1.878,8.416,8.416,0,0,1-1.326.044h-1.107Z" transform="translate(-119.025 -342.482)" fill="#125eab"/>
    </g>
  </g>
</svg>
