<?xml version="1.0" encoding="utf-8"?>
<!-- Generator: Adobe Illustrator 22.0.0, SVG Export Plug-In . SVG Version: 6.00 Build 0)  -->
<svg version="1.1" id="Layer_1" xmlns="http://www.w3.org/2000/svg" xmlns:xlink="http://www.w3.org/1999/xlink" x="0px" y="0px"
	 viewBox="0 0 2000 2000" style="enable-background:new 0 0 2000 2000;" xml:space="preserve">
<style type="text/css">
	.st0{fill:#9F282DE2;}
</style>
<g>
	<path class="st0" d="M1784,307c28.7,12.2,33.7,22.8,25.3,54.7C1780.1,473,1713.9,557.6,1620,622c-59,40.5-123.4,69.6-192.1,88.8
		c-12.9,3.6-27,4.6-40.5,4.6c-383.5,0.4-767.1,0.4-1150.6,0.4c-9.2,0-18.5-1.1-27.4-3.2c-18.9-4.6-24.2-13.8-21.8-32.7
		c19.8-157.7,108.6-261.5,251.9-322.7c61.2-26.1,125-42,191.3-47.7c3.9-0.3,7.7-1.7,11.5-2.5H1784z"/>
	<path class="st0" d="M1193.3,1214.7c-177,0-354-1.5-531,0.8c-65.3,0.9-125.5-12.6-183.9-39.6c-98.1-45.3-182.2-107.2-239.5-200.9
		c-23.6-38.6-40.4-80.1-50.3-124.3c-5.7-25.6,4.5-40.5,30.2-43.3c10-1.1,20.2-0.8,30.4-0.8c249.9,0,499.7,0,749.5-0.1
		c109.5,0,219-1.8,328.4,0c117,1.9,226.4,32.3,323.7,99.2c92.7,63.8,145.1,152.8,159.8,264.2c0.3,2.6,1,5.2,1.4,7.8
		c3.6,21.8-5.8,33.7-28.1,35.1c-15.9,0.9-31.8,1.6-47.6,1.6c-181,0.1-362,0.1-542.9,0.1V1214.7z"/>
	<path class="st0" d="M1188,1304.5c182.3,0,364.6,0,546.9,0c12.8,0,25.6,0.2,38.4,0.6c33.8,0.9,41,8.9,37.2,42.4
		c-8.4,73.2-35.3,138.7-82.5,195.5c-50.4,60.6-115.2,100.6-188.1,128c-71.1,26.8-144.3,40.8-220.8,40.6
		c-282.5-0.7-565-0.1-847.6-0.1c-79.9,0-159.8-0.1-239.7-0.3c-40.7-0.1-51.4-14.2-41-53.5c32.8-123.7,110-212.7,217.4-278.1
		c51.1-31.1,105.5-54.6,163.2-70.3c13.4-3.7,27.9-4.8,41.8-4.8C804.8,1304.4,996.4,1304.5,1188,1304.5"/>
</g>
</svg>
