<?xml version="1.0" encoding="UTF-8" standalone="no" ?>
<svg xmlns="http://www.w3.org/2000/svg" xmlns:xlink="http://www.w3.org/1999/xlink" version="1.1" width="416.1086pt" height="131.8579pt" viewBox="79.13689958791926 2.008543782587097 416.1085628909539 131.8579428443061" xml:space="preserve">
<defs>
</defs>
<g transform="matrix(0.2218336858 0 0 0.2218336858 155.3027074459 21.2637077107)" id="AemhpKInOpWPLhSh779qr"  >
<path style="stroke: none; stroke-width: 1; stroke-dasharray: none; stroke-linecap: butt; stroke-dashoffset: 0; stroke-linejoin: miter; stroke-miterlimit: 4; fill: rgba(159,40,45,0.89); fill-rule: nonzero; opacity: 1;" transform=" translate(-414.4005172198, -799.4)" d="M 745 713.1 C 757.1 718.2 759.2 722.7 755.7 736.2 C 743.4000000000001 783.2 715.4000000000001 818.8000000000001 675.9000000000001 846 C 651.0000000000001 863.1 623.9000000000001 875.3 594.9000000000001 883.5 C 589.4000000000001 885 583.5000000000001 885.5 577.8000000000001 885.5 C 416.1000000000001 885.6 254.30000000000007 885.7 92.60000000000008 885.7 C 88.70000000000007 885.7 84.80000000000008 885.2 81.00000000000009 884.3000000000001 C 73.00000000000009 882.4000000000001 70.80000000000008 878.5000000000001 71.80000000000008 870.5000000000001 C 80.20000000000009 804.0000000000001 117.60000000000008 760.2000000000002 178.00000000000009 734.4000000000001 C 203.8000000000001 723.4000000000001 230.7000000000001 716.7 258.7000000000001 714.3000000000001 C 260.3000000000001 714.2 261.9000000000001 713.6 263.6000000000001 713.2 L 745 713.2 z" stroke-linecap="round" />
</g>
<g transform="matrix(0.2218336858 0 0 0.2218336858 429.8469797487 53.9388058974)" id="bpZBKPvpQcCx8m-V0iImP"  >
<path style="stroke: none; stroke-width: 1; stroke-dasharray: none; stroke-linecap: butt; stroke-dashoffset: 0; stroke-linejoin: miter; stroke-miterlimit: 4; fill: rgba(159,40,45,0.89); fill-rule: nonzero; opacity: 1;" transform=" translate(-1652.0136024587, -946.695475291)" d="M 1945.8 996.8 C 1945.8 997.0999999999999 1945.7 997.4 1945.6 997.6999999999999 C 1944.6 1001.6999999999999 1941.3 1004.8 1937.6 1006.3 C 1933.8 1007.9 1929.6999999999998 1008.1999999999999 1925.6 1008.0999999999999 C 1901.6 1007.6999999999999 1877.6 1007.8999999999999 1853.6 1007.8999999999999 C 1829.1999999999998 1007.8999999999999 1804.6999999999998 1007.8999999999999 1780.3 1007.8999999999999 C 1755.8999999999999 1007.8999999999999 1731.3999999999999 1007.8999999999999 1707 1007.8999999999999 C 1682.6 1007.8999999999999 1658.1 1007.8999999999999 1633.7 1007.8999999999999 C 1627.3 1007.8999999999999 1621 1007.8999999999999 1614.6000000000001 1007.8999999999999 C 1606.2 1007.8999999999999 1606.2 1007.8999999999999 1604.1000000000001 1015.8999999999999 C 1599.0000000000002 1034.6999999999998 1591.9 1052.6 1579.1000000000001 1067.6 C 1563.5000000000002 1085.8999999999999 1543.7 1095.5 1519.6000000000001 1095.6999999999998 C 1496.1000000000001 1095.8999999999999 1472.7 1095.7999999999997 1449.2 1095.6999999999998 C 1437.6000000000001 1095.6999999999998 1429.8 1090.6999999999998 1426.9 1081.6 C 1422.3000000000002 1067.5 1432.2 1054.1 1447.8000000000002 1054 C 1471.4 1053.8 1495.1000000000001 1053.6 1518.7000000000003 1054.1 C 1533.0000000000002 1054.3999999999999 1544.1000000000004 1049.1 1552.1000000000004 1037.6 C 1556.8000000000004 1030.8999999999999 1561.0000000000005 1023.8999999999999 1564.8000000000004 1016.6999999999999 C 1568.1000000000004 1010.4999999999999 1566.2000000000005 1007.8 1559.0000000000005 1007.8 C 1515.8000000000004 1007.8 1472.6000000000004 1008 1429.4000000000005 1007.6999999999999 C 1401.4000000000005 1007.4999999999999 1377.0000000000005 992.9999999999999 1365.9000000000005 966.9 C 1354.1000000000006 939 1355.7000000000005 901.3 1366.5000000000005 873.4 C 1376.1000000000004 848.4 1394.7000000000005 829.1 1417.7000000000005 816 C 1421.9000000000005 813.6 1426.3000000000004 811.3 1430.7000000000005 809.3 C 1471.8000000000004 790.0999999999999 1532.4000000000005 794.4 1568.6000000000006 822.8 C 1586.0000000000007 836.5 1598.0000000000007 856.4 1604.7000000000005 877.5 C 1612.9000000000005 903.2 1614.1000000000006 930.8 1612.6000000000006 957.6 C 1612.2000000000005 965 1613.3000000000006 966.4 1620.9000000000005 966.4 C 1655.2000000000005 966.4 1689.4000000000005 966.4 1723.7000000000005 966.4 C 1731.3000000000004 966.4 1732.2000000000005 965.4 1732.3000000000004 957.5 C 1732.3000000000004 920.3 1732.3000000000004 883 1732.3000000000004 845.8 C 1732.3000000000004 833.5999999999999 1739.4000000000003 825.1999999999999 1749.9000000000003 824.6999999999999 C 1762.2000000000003 824.0999999999999 1770.6000000000004 832.4999999999999 1770.6000000000004 845.5999999999999 C 1770.6000000000004 882.5999999999999 1770.6000000000004 919.6999999999999 1770.6000000000004 956.6999999999999 C 1770.6000000000004 957.9999999999999 1770.7000000000003 959.3 1770.6000000000004 960.5999999999999 C 1770.4000000000003 964.3999999999999 1772.5000000000005 966.1999999999999 1775.9000000000003 966.3 C 1788.4000000000003 966.4 1800.8000000000004 966.4 1813.3000000000004 966.3 C 1818.0000000000005 966.3 1818.9000000000003 963.1999999999999 1818.9000000000003 959.0999999999999 C 1818.8000000000004 921.0999999999999 1818.8000000000004 883.1999999999999 1818.9000000000003 845.1999999999999 C 1818.9000000000003 832.3 1827.7000000000003 823.9 1840.0000000000002 824.6999999999999 C 1848.2000000000003 825.1999999999999 1855.5000000000002 831.8 1856.7000000000003 840.0999999999999 C 1857.1000000000004 842.9999999999999 1857.2000000000003 845.9999999999999 1857.2000000000003 848.9999999999999 C 1857.2000000000003 884.8999999999999 1857.2000000000003 920.8999999999999 1857.2000000000003 956.7999999999998 C 1857.2000000000003 965.6999999999998 1857.9000000000003 966.3999999999999 1866.7000000000003 966.3999999999999 C 1877.7000000000003 966.3999999999999 1888.7000000000003 966.3999999999999 1899.7000000000003 966.3999999999999 C 1906.4000000000003 966.3999999999999 1907.4000000000003 965.2999999999998 1907.4000000000003 958.5999999999999 C 1907.4000000000003 921.6999999999999 1907.4000000000003 884.8999999999999 1907.5000000000002 847.9999999999999 C 1907.5000000000002 844.2999999999998 1907.9000000000003 840.4999999999999 1908.9000000000003 836.9999999999999 C 1911.1000000000004 829.8999999999999 1918.0000000000002 825.0999999999999 1925.3000000000004 824.6999999999999 C 1935.0000000000005 824.1999999999999 1943.8000000000004 831.0999999999999 1945.7000000000005 840.5999999999999 C 1946.5000000000005 844.4999999999999 1946.3000000000004 848.3999999999999 1946.3000000000004 852.3 C 1945.9000000000003 872.5999999999999 1946.3000000000004 892.9 1946.3000000000004 913.1999999999999 L 1946.3000000000004 986.0999999999999 L 1946.3000000000004 992.6999999999999 C 1946 994.2 1946 995.5 1945.8 996.8 M 1502.4 966.5 C 1524.9 966.5 1547.4 966.4 1569.9 966.6 C 1573.9 966.6 1576 965.8000000000001 1576.1000000000001 961.2 C 1576.6000000000001 942.6 1576.9 924 1572.9 905.7 C 1568.1000000000001 883.6 1558.9 864.1 1539.9 850.6 C 1521.9 837.8000000000001 1501.2 834.8000000000001 1479.6000000000001 834.3000000000001 C 1457.0000000000002 833.7 1437.5000000000002 841.0000000000001 1421.1000000000001 856.0000000000001 C 1401.6000000000001 873.7000000000002 1392.4 899.5000000000001 1393.6000000000001 925.6000000000001 C 1394.0000000000002 935.1000000000001 1396.7 944.8000000000002 1402.9 952.1000000000001 C 1409.4 959.7000000000002 1419.2 964.0000000000001 1429 965.7000000000002 C 1440.8 967.7000000000002 1452.9 966.3000000000002 1464.8 966.5000000000001 C 1477.4 966.8 1489.9 966.5 1502.4 966.5" stroke-linecap="round" />
</g>
<g transform="matrix(0.2218336858 0 0 0.2218336858 357.2940392593 114.5586371984)" id="w9r7WxERKQo0-6Iskip3h"  >
<path style="stroke: none; stroke-width: 1; stroke-dasharray: none; stroke-linecap: butt; stroke-dashoffset: 0; stroke-linejoin: miter; stroke-miterlimit: 4; fill: rgba(159,40,45,0.89); fill-rule: nonzero; opacity: 1;" transform=" translate(-1324.953533898, -1219.9625)" d="M 1257.8 1306.3 C 1254.2 1304.5 1252.7 1301.6 1252 1297.6 C 1242.6 1246.3 1233 1195 1223.5 1143.8 C 1222.1 1136.3999999999999 1224.4 1133.6 1231.8 1133.6 C 1236.8 1133.6 1241.8999999999999 1133.3999999999999 1246.8 1134.1999999999998 C 1255.8 1135.4999999999998 1261.8 1140.9999999999998 1263.3999999999999 1149.9999999999998 C 1266.3 1166.7999999999997 1268.6999999999998 1183.6999999999998 1271.1 1200.6999999999998 C 1274.1999999999998 1223.1 1277.1999999999998 1245.6 1281.3 1268.1 C 1282.8 1260.8 1284.1 1253.3999999999999 1285.7 1246.1 C 1292.9 1212.3999999999999 1300.1000000000001 1178.6 1307.4 1144.8999999999999 C 1309.2 1136.4999999999998 1312.9 1133.6999999999998 1321.5 1133.6 C 1325.4 1133.5 1329.3 1133.5 1333.2 1133.6 C 1340 1133.8999999999999 1343.4 1136.5 1344.8 1143.3 C 1353.3999999999999 1183.6 1362 1223.8999999999999 1370.5 1264.1 C 1370.8 1265.3 1371.2 1266.5 1372.6 1267.6999999999998 C 1373.8 1258.4999999999998 1374.8999999999999 1249.3999999999999 1376.1999999999998 1240.1999999999998 C 1380.3999999999999 1210.3999999999999 1384.3999999999999 1180.6 1388.7999999999997 1150.7999999999997 C 1390.2999999999997 1141.0999999999997 1397.4999999999998 1134.6999999999998 1407.4999999999998 1133.6999999999998 C 1411.5999999999997 1133.2999999999997 1415.6999999999998 1133.3999999999999 1419.7999999999997 1133.6 C 1425.2999999999997 1133.8999999999999 1427.4999999999998 1136.6 1426.5999999999997 1142 C 1422.6999999999996 1164.9 1418.6999999999996 1187.7 1414.6999999999996 1210.6 C 1409.6999999999996 1239.3 1404.4999999999995 1268 1399.5999999999997 1296.6999999999998 C 1398.8999999999996 1300.6999999999998 1397.7999999999997 1304.1999999999998 1394.0999999999997 1306.2999999999997 L 1366.1999999999996 1306.2999999999997 C 1365.7999999999995 1305.9999999999998 1365.3999999999996 1305.4999999999998 1364.8999999999996 1305.3999999999996 C 1353.3999999999996 1302.8999999999996 1347.0999999999997 1295.6999999999996 1344.7999999999997 1284.2999999999997 C 1342.3999999999996 1272.4999999999998 1339.5999999999997 1260.6999999999998 1337.1999999999998 1248.8999999999996 C 1333.1 1228.7999999999997 1329.1999999999998 1208.6999999999996 1325.1 1188.0999999999997 C 1324.6 1189.2999999999997 1324 1190.2999999999997 1323.8 1191.2999999999997 C 1318.5 1218.9999999999998 1313.2 1246.6999999999998 1307.8999999999999 1274.3999999999996 C 1307.1999999999998 1277.8999999999996 1306.3 1281.2999999999997 1305.6999999999998 1284.7999999999997 C 1303.6999999999998 1296.8999999999996 1295.8999999999999 1303.3999999999996 1284.6 1306.4999999999998 L 1257.8 1306.4999999999998 z" stroke-linecap="round" />
</g>
<g transform="matrix(0.2218336858 0 0 0.2218336858 480.1225671536 114.5435072512)" id="zgmS1F_Kr57HVg6bfq4vz"  >
<path style="stroke: none; stroke-width: 1; stroke-dasharray: none; stroke-linecap: butt; stroke-dashoffset: 0; stroke-linejoin: miter; stroke-miterlimit: 4; fill: rgba(159,40,45,0.89); fill-rule: nonzero; opacity: 1;" transform=" translate(-1878.65, -1219.8942959887)" d="M 1811.9 1306.3 C 1811.6000000000001 1304.1 1811.2 1301.8999999999999 1811.2 1299.7 C 1811.2 1250.6000000000001 1811.2 1201.5 1811.2 1152.3 C 1811.2 1138.8 1816.6000000000001 1133.2 1830.2 1133.5 C 1847.5 1133.9 1864.9 1133.5 1882 1135.6 C 1917.7 1140 1942.2 1167.1 1944.9 1203.1 C 1945.1000000000001 1205.5 1945.7 1207.8 1946.1000000000001 1210.1 L 1946.1000000000001 1228 C 1945.3000000000002 1232.7 1944.5000000000002 1237.4 1943.8000000000002 1242.2 C 1938.9 1273.7 1918.5000000000002 1295.8 1887.5000000000002 1302.8 C 1881.1000000000001 1304.3 1874.4000000000003 1305.1 1867.9000000000003 1306.2 L 1811.9 1306.2 z M 1849.8 1275 C 1855.8 1274.6 1860.8999999999999 1274.5 1866 1274 C 1883.8 1272.3 1896.5 1263.4 1902.1 1246.2 C 1907.8 1228.4 1907.8 1210.3 1902.3 1192.4 C 1898.1 1178.7 1888.5 1170.1000000000001 1874.6 1166.7 C 1870.1 1165.6000000000001 1865.3999999999999 1165.2 1860.8 1164.8 C 1852.8999999999999 1164.1 1849.8 1167 1849.8 1175 C 1849.8 1198.1 1849.8 1221.2 1849.8 1244.3 L 1849.8 1275 z" stroke-linecap="round" />
</g>
<g transform="matrix(0.2218336858 0 0 0.2218336858 305.4195737123 114.4822930693)" id="YaBmhbwnqd-c8EHmOB_0G"  >
<path style="stroke: none; stroke-width: 1; stroke-dasharray: none; stroke-linecap: butt; stroke-dashoffset: 0; stroke-linejoin: miter; stroke-miterlimit: 4; fill: rgba(159,40,45,0.89); fill-rule: nonzero; opacity: 1;" transform=" translate(-1091.1095829306, -1219.6183497022)" d="M 1086.7 1305.6 C 1080.7 1305.6 1076.3 1304.6999999999998 1071.1000000000001 1303.3 C 1042.0000000000002 1295.5 1025.9 1275.2 1019.4000000000001 1246.8999999999999 C 1014.0000000000001 1223.3 1014.7 1199.6 1024 1176.8 C 1037.1 1145 1065.8 1132 1096.4 1133.8 C 1139.4 1136.3 1161 1167.3 1165.1000000000001 1202.3999999999999 C 1167.5000000000002 1223.1 1166.4 1243.3 1158.0000000000002 1262.6 C 1147.0000000000002 1287.8999999999999 1127.7000000000003 1302.3999999999999 1100.0000000000002 1305.3 C 1098.6000000000001 1305.3999999999999 1097.0000000000002 1305.6 1095.5000000000002 1305.6 L 1086.7 1305.6 z M 1054.3 1219 C 1054.8 1219.1 1053.8 1218.9 1054.3 1219 C 1054.3999999999999 1231.2 1056 1243.1 1061.6 1254.1 C 1067.6999999999998 1266.1 1077.3 1273.5 1091.1 1273.6 C 1105.1 1273.6 1115.3 1266.3999999999999 1120.8999999999999 1253.8 C 1130.8 1231.7 1130.9999999999998 1209.1 1121.8 1186.7 C 1116.3 1173.3 1105.8 1165.8 1091 1165.8 C 1076 1165.8 1065.3 1173.8 1060.2 1187.5 C 1056.6 1197.5 1055 1205.3 1054.3 1219" stroke-linecap="round" />
</g>
<g transform="matrix(0.2218336858 0 0 0.2218336858 407.8141635633 114.5271712582)" id="4HI06BeVlJYDM7keDwqw2"  >
<path style="stroke: none; stroke-width: 1; stroke-dasharray: none; stroke-linecap: butt; stroke-dashoffset: 0; stroke-linejoin: miter; stroke-miterlimit: 4; fill: rgba(159,40,45,0.89); fill-rule: nonzero; opacity: 1;"  transform=" translate(-1552.6922748381, -1219.8206552658)" d="M 1483.5 1306.3 C 1478.1 1303.5 1477.3 1299.5 1479.1 1293.8 C 1493.3999999999999 1248.5 1507.5 1203.2 1521.6999999999998 1157.8999999999999 C 1526.6999999999998 1141.9999999999998 1538.1999999999998 1133.6999999999998 1554.9999999999998 1133.4999999999998 C 1559.0999999999997 1133.4999999999998 1563.1999999999998 1133.6999999999998 1567.2999999999997 1133.3999999999999 C 1573.2999999999997 1132.8999999999999 1576.3999999999996 1135.6 1578.0999999999997 1141.3 C 1591.3999999999996 1184.5 1604.9999999999998 1227.7 1618.4999999999998 1270.8999999999999 C 1621.0999999999997 1279.1999999999998 1623.4999999999998 1287.6 1626.3999999999999 1295.8 C 1627.9999999999998 1300.3999999999999 1627.1 1303.7 1623.1 1306.2 L 1598.5 1306.2 C 1590 1304 1585.8 1298.1000000000001 1584.2 1289.7 C 1582.9 1283 1580.9 1276.4 1579.3 1269.7 C 1578.3999999999999 1266.1000000000001 1576.6 1264.6000000000001 1572.7 1264.6000000000001 C 1558.8 1264.8000000000002 1544.8 1264.8000000000002 1530.9 1264.6000000000001 C 1526.7 1264.5000000000002 1524.9 1266.2 1524 1270.1000000000001 C 1522.6 1276.4 1520.4 1282.6000000000001 1519.3 1288.9 C 1517.8 1297.2 1514 1303.3000000000002 1505.8 1306.1000000000001 L 1483.5 1306.1000000000001 z M 1552.5 1166.5 C 1552 1166.5 1551.6 1166.6 1551.1 1166.6 C 1550.8 1167.1 1550.5 1167.5 1550.3999999999999 1168 C 1545.1999999999998 1188.1 1539.9999999999998 1208.1 1534.9999999999998 1228.2 C 1533.7999999999997 1232.8 1535.9999999999998 1234.8 1540.5999999999997 1234.7 C 1547.6999999999996 1234.6000000000001 1554.6999999999996 1234.7 1561.7999999999997 1234.7 C 1568.7999999999997 1234.7 1569.9999999999998 1233.1000000000001 1568.1999999999998 1226.3 C 1565.1999999999998 1214.7 1561.9999999999998 1203.1 1558.8999999999999 1191.3999999999999 C 1556.7 1183.2 1554.6 1174.8 1552.5 1166.5" stroke-linecap="round" />
</g>
<g transform="matrix(0.2218336858 0 0 0.2218336858 261.0085167839 114.5162178094)" id="frRuercJi87lTQHVT0wBe"  >
<path style="stroke: none; stroke-width: 1; stroke-dasharray: none; stroke-linecap: butt; stroke-dashoffset: 0; stroke-linejoin: miter; stroke-miterlimit: 4; fill: rgba(159,40,45,0.89); fill-rule: nonzero; opacity: 1;"  transform=" translate(-890.9097946676, -1219.7712784152)" d="M 882.5 1306.3 C 875.5 1304.8 868.4 1303.6 861.4 1301.8 C 856.9 1300.6 852.5 1298.8999999999999 848.4 1296.8999999999999 C 835 1290.1999999999998 832.4 1271.8 843.1999999999999 1261.4999999999998 C 846.8 1257.9999999999998 850.4999999999999 1258.8999999999999 854.3 1261.4999999999998 C 863.4 1267.8999999999999 873.3 1272.5999999999997 884.5 1273.2999999999997 C 889.8 1273.5999999999997 895.3 1272.8999999999996 900.4 1271.6999999999998 C 906.6999999999999 1270.1999999999998 910.6999999999999 1265.6999999999998 911.4 1259.1 C 912.1 1252.6 909 1247.6999999999998 903.4 1245 C 894.1999999999999 1240.5 884.6999999999999 1236.8 875.5 1232.4 C 867.3 1228.5 858.6 1225.1000000000001 851.4 1219.8000000000002 C 826.4 1201.4 826.1999999999999 1165.0000000000002 851.1999999999999 1146.6000000000001 C 873.5999999999999 1130.1000000000001 898.1999999999999 1129.8000000000002 922.9999999999999 1140.7 C 934.3999999999999 1145.8 937.9999999999999 1159.9 931.8999999999999 1170.7 C 928.4999999999999 1176.6000000000001 924.8999999999999 1177.6000000000001 919.0999999999999 1174.1000000000001 C 908.3999999999999 1167.6000000000001 897.0999999999999 1164.3000000000002 884.4999999999999 1166.5000000000002 C 876.5999999999999 1167.8000000000002 871.4999999999999 1172.3000000000002 870.3999999999999 1178.8000000000002 C 869.3999999999999 1184.6000000000001 872.3999999999999 1190.2000000000003 879.8999999999999 1193.6000000000001 C 892.8999999999999 1199.5000000000002 906.1999999999998 1204.6000000000001 919.2999999999998 1210.4 C 933.7999999999998 1216.7 944.7999999999998 1226.5 948.0999999999998 1242.7 C 953.7999999999998 1270.7 938.2999999999998 1294.9 909.6999999999998 1302.8 C 903.9999999999998 1304.3999999999999 898.0999999999998 1305.2 892.3999999999999 1306.3 L 882.5 1306.3 z" stroke-linecap="round" />
</g>
<g transform="matrix(0.2218336858 0 0 0.2218336858 443.0430665708 114.5543363412)" id="kb42taOYCdD-ncoCAi5G5"  >
<path style="stroke: none; stroke-width: 1; stroke-dasharray: none; stroke-linecap: butt; stroke-dashoffset: 0; stroke-linejoin: miter; stroke-miterlimit: 4; fill: rgba(159,40,45,0.89); fill-rule: nonzero; opacity: 1;"  transform=" translate(-1711.5, -1219.9431122449)" d="M 1698 1306.3 C 1693.7 1303.8999999999999 1692.3 1300.3999999999999 1692.3 1295.3999999999999 C 1692.5 1248.6999999999998 1692.3999999999999 1201.9999999999998 1692.3999999999999 1155.1999999999998 C 1692.3999999999999 1140.8999999999999 1699.8 1133.6 1714.1 1133.4999999999998 C 1730.6999999999998 1133.3999999999999 1730.6999999999998 1133.3999999999999 1730.6999999999998 1150.2999999999997 C 1730.6999999999998 1193.8999999999996 1730.6999999999998 1237.3999999999996 1730.6999999999998 1280.9999999999998 C 1730.6999999999998 1296.8999999999999 1728.1 1300.6999999999998 1713.6 1306.3999999999999 L 1698 1306.3999999999999 z" stroke-linecap="round" />
</g>
<g transform="matrix(0.2218336858 0 0 0.2218336858 155.2877338885 67.9384663323)" id="1Rey_YwOy0zFZTSWHXXMn"  >
<path style="stroke: none; stroke-width: 1; stroke-dasharray: none; stroke-linecap: butt; stroke-dashoffset: 0; stroke-linejoin: miter; stroke-miterlimit: 4; fill: rgba(159,40,45,0.89); fill-rule: nonzero; opacity: 1;"  transform=" translate(-414.3330181953, -1009.8042875705)" d="M 495.9 1095.9 C 421.2 1095.9 346.59999999999997 1095.3000000000002 272 1096.2 C 244.4 1096.6000000000001 219.1 1090.9 194.4 1079.5 C 153 1060.4 117.60000000000001 1034.3 93.4 994.8 C 83.4 978.5 76.4 961 72.2 942.4 C 69.8 931.6 74.10000000000001 925.3 84.9 924.1 C 89.10000000000001 923.6 93.4 923.7 97.7 923.7 C 203.10000000000002 923.7 308.4 923.7 413.8 923.7 C 460 923.7 506.1 923 552.3 923.7 C 601.5999999999999 924.5 647.8 937.3000000000001 688.8 965.5 C 727.9 992.4 750 1029.9 756.1999999999999 1076.9 C 756.3 1078 756.5999999999999 1079.1000000000001 756.8 1080.2 C 758.3 1089.4 754.4 1094.4 744.9 1095 C 738.1999999999999 1095.4 731.5 1095.7 724.8 1095.7 C 648.5 1095.7 572.0999999999999 1095.7 495.79999999999995 1095.7 L 495.79999999999995 1095.9 z" stroke-linecap="round" />
</g>
<g transform="matrix(0.2218336858 0 0 0.2218336858 155.2585863936 114.4894528561)" id="ucA7JwNIkDhtXH2lEGaQJ"  >
<path style="stroke: none; stroke-width: 1; stroke-dasharray: none; stroke-linecap: butt; stroke-dashoffset: 0; stroke-linejoin: miter; stroke-miterlimit: 4; fill: rgba(159,40,45,0.89); fill-rule: nonzero; opacity: 1;"  transform=" translate(-414.2016247381, -1219.6506251737)" d="M 493.7 1133.8 C 570.6 1133.8 647.5 1133.8 724.4 1133.8 C 729.8 1133.8 735.1999999999999 1133.8999999999999 740.6 1134 C 754.8000000000001 1134.4 757.9 1137.7 756.3000000000001 1151.9 C 752.8000000000001 1182.8000000000002 741.4000000000001 1210.4 721.5000000000001 1234.4 C 700.2000000000002 1260 672.9000000000001 1276.8000000000002 642.2000000000002 1288.4 C 612.2000000000002 1299.7 581.3000000000002 1305.6000000000001 549.1000000000001 1305.5 C 430.0000000000001 1305.2 310.8000000000001 1305.4 191.70000000000016 1305.5 C 158.00000000000017 1305.5 124.30000000000015 1305.5 90.60000000000016 1305.4 C 73.40000000000016 1305.4 68.90000000000016 1299.4 73.30000000000017 1282.9 C 87.10000000000016 1230.7 119.70000000000016 1193.2 165.00000000000017 1165.6000000000001 C 186.60000000000016 1152.5000000000002 209.50000000000017 1142.6000000000001 233.80000000000018 1135.9 C 239.40000000000018 1134.4 245.50000000000017 1133.9 251.40000000000018 1133.9 C 332.1 1133.8 412.9 1133.8 493.7 1133.8" stroke-linecap="round" />
</g>
<g transform="matrix(0.2218336858 0 0 0.2218336858 300.2498529815 43.2770704483)" id="GVNPUQnEFwSbbwKwlbpwq"  >
<path style="stroke: none; stroke-width: 1; stroke-dasharray: none; stroke-linecap: butt; stroke-dashoffset: 0; stroke-linejoin: miter; stroke-miterlimit: 4; fill: rgba(159,40,45,0.89); fill-rule: nonzero; opacity: 1;"  transform=" translate(-1067.80509375, -898.6336337803)" d="M 1095.5 965.1 C 1107.4 967.9 1122.8 965.4 1135.1 965.4 L 1176.3 965.4 L 1258 965.4 C 1258 963.1999999999999 1258 961.1 1258 959 C 1258 921.8 1257.9 884.5 1258 847.3 C 1258 830.8 1271.7 821 1287.3 826.0999999999999 C 1295.8999999999999 828.8999999999999 1301.2 835.8 1301.2 844.8999999999999 C 1301.3 892.5999999999999 1301.3 940.1999999999998 1301.2 987.8999999999999 C 1301.2 999.8999999999999 1291.5 1009.0999999999999 1279.2 1009.1999999999998 C 1240.3 1009.1999999999998 1201.4 1009.1999999999998 1162.5 1009.1999999999998 C 1060.7 1009.1999999999998 958.9 1009.1999999999998 857 1009.1999999999998 C 840.5 1009.1999999999998 830.7 995.7999999999998 835.6 980.0999999999998 C 838.3000000000001 971.1999999999998 845.5 965.8999999999997 855.3000000000001 965.8999999999997 C 891.8000000000001 965.7999999999997 928.3000000000001 965.7999999999997 964.8000000000001 965.7999999999997 C 990.4000000000001 965.7999999999997 1033 975.3999999999997 1051.1000000000001 953.0999999999997 C 1083.5000000000002 913.0999999999997 1055.7 855.8999999999996 1011.2000000000002 840.5999999999997 C 976.1000000000001 828.4999999999997 940.5000000000001 826.8999999999996 906.1000000000001 844.1999999999997 C 898.2000000000002 848.1999999999997 891.2000000000002 853.8999999999997 883.8000000000002 858.8999999999997 C 875.4000000000002 864.5999999999998 865.1000000000001 864.8999999999997 857.8000000000002 859.3999999999997 C 850.4000000000002 853.8999999999997 846.9000000000002 843.2999999999997 850.3000000000002 834.3999999999997 C 851.5000000000002 831.2999999999997 853.6000000000001 828.0999999999998 856.2000000000002 825.8999999999997 C 891.7000000000002 796.1999999999997 932.7000000000002 784.4999999999998 978.6000000000001 788.9999999999998 C 1001.2000000000002 791.1999999999998 1023.5000000000001 794.9999999999998 1043.1000000000001 806.6999999999998 C 1093.6000000000001 836.5999999999998 1122.8000000000002 896.6999999999998 1100.4 953.9999999999998 C 1098.9 957.5 1096.6 961.2 1095.5 965.1" stroke-linecap="round" />
</g>
<g transform="matrix(0.2218336858 0 0 0.2218336858 332.1148287783 81.3695389556)" id="Q0NLMEZ0fKoEjEIr5DHev"  >
<path style="stroke: none; stroke-width: 1; stroke-dasharray: none; stroke-linecap: butt; stroke-dashoffset: 0; stroke-linejoin: miter; stroke-miterlimit: 4; fill: rgba(159,40,45,0.89); fill-rule: nonzero; opacity: 1;"  transform=" translate(-1211.4486331916, -1070.3499732917)" d="M 1235.4 1070.1 C 1235.4 1084.3999999999999 1224.9 1095.6999999999998 1211.5 1095.8 C 1198.1 1095.8999999999999 1187.3 1084.3 1187.5 1069.8 C 1187.6 1056.1 1198.7 1045 1212.2 1044.8999999999999 C 1225.6 1044.8 1235.4 1055.5 1235.4 1070.1" stroke-linecap="round" />
</g>
<g transform="matrix(0.2218336858 0 0 0.2218336858 345.5469574286 81.3697490871)" id="i5oKGPZp_ekISz4VNVhz3"  >
<path style="stroke: none; stroke-width: 1; stroke-dasharray: none; stroke-linecap: butt; stroke-dashoffset: 0; stroke-linejoin: miter; stroke-miterlimit: 4; fill: rgba(159,40,45,0.89); fill-rule: nonzero; opacity: 1;"  transform=" translate(-1271.9990793575, -1070.3509205394)" d="M 1296 1069.9 C 1296.1 1084.4 1285.9 1095.6000000000001 1272.5 1095.8000000000002 C 1259.4 1096.0000000000002 1248.3 1084.5000000000002 1248 1070.5000000000002 C 1247.8 1056.9000000000003 1259.3 1044.9000000000003 1272.7 1044.9000000000003 C 1286.4 1044.8 1295.9 1055 1296 1069.9" stroke-linecap="round" />
</g>
</svg>
