<?xml version="1.0" encoding="utf-8"?>
<!-- Generator: Adobe Illustrator 22.0.0, SVG Export Plug-In . SVG Version: 6.00 Build 0)  -->
<svg version="1.1" id="Layer_1" xmlns="http://www.w3.org/2000/svg" xmlns:xlink="http://www.w3.org/1999/xlink" x="0px" y="0px"
	 viewBox="0 0 2000 2000" style="enable-background:new 0 0 2000 2000;" xml:space="preserve">
<style type="text/css">
	.st0{fill:#C42126;}
</style>
<g>
	<path class="st0" d="M745,713.1c12.1,5.1,14.2,9.6,10.7,23.1c-12.3,47-40.3,82.6-79.8,109.8c-24.9,17.1-52,29.3-81,37.5
		c-5.5,1.5-11.4,2-17.1,2c-161.7,0.1-323.5,0.2-485.2,0.2c-3.9,0-7.8-0.5-11.6-1.4c-8-1.9-10.2-5.8-9.2-13.8
		c8.4-66.5,45.8-110.3,106.2-136.1c25.8-11,52.7-17.7,80.7-20.1c1.6-0.1,3.2-0.7,4.9-1.1H745z"/>
	<path class="st0" d="M1945.8,996.8c0,0.3-0.1,0.6-0.2,0.9c-1,4-4.3,7.1-8,8.6c-3.8,1.6-7.9,1.9-12,1.8c-24-0.4-48-0.2-72-0.2
		c-24.4,0-48.9,0-73.3,0c-24.4,0-48.9,0-73.3,0c-24.4,0-48.9,0-73.3,0c-6.4,0-12.7,0-19.1,0c-8.4,0-8.4,0-10.5,8
		c-5.1,18.8-12.2,36.7-25,51.7c-15.6,18.3-35.4,27.9-59.5,28.1c-23.5,0.2-46.9,0.1-70.4,0c-11.6,0-19.4-5-22.3-14.1
		c-4.6-14.1,5.3-27.5,20.9-27.6c23.6-0.2,47.3-0.4,70.9,0.1c14.3,0.3,25.4-5,33.4-16.5c4.7-6.7,8.9-13.7,12.7-20.9
		c3.3-6.2,1.4-8.9-5.8-8.9c-43.2,0-86.4,0.2-129.6-0.1c-28-0.2-52.4-14.7-63.5-40.8c-11.8-27.9-10.2-65.6,0.6-93.5
		c9.6-25,28.2-44.3,51.2-57.4c4.2-2.4,8.6-4.7,13-6.7c41.1-19.2,101.7-14.9,137.9,13.5c17.4,13.7,29.4,33.6,36.1,54.7
		c8.2,25.7,9.4,53.3,7.9,80.1c-0.4,7.4,0.7,8.8,8.3,8.8c34.3,0,68.5,0,102.8,0c7.6,0,8.5-1,8.6-8.9c0-37.2,0-74.5,0-111.7
		c0-12.2,7.1-20.6,17.6-21.1c12.3-0.6,20.7,7.8,20.7,20.9c0,37,0,74.1,0,111.1c0,1.3,0.1,2.6,0,3.9c-0.2,3.8,1.9,5.6,5.3,5.7
		c12.5,0.1,24.9,0.1,37.4,0c4.7,0,5.6-3.1,5.6-7.2c-0.1-38-0.1-75.9,0-113.9c0-12.9,8.8-21.3,21.1-20.5c8.2,0.5,15.5,7.1,16.7,15.4
		c0.4,2.9,0.5,5.9,0.5,8.9c0,35.9,0,71.9,0,107.8c0,8.9,0.7,9.6,9.5,9.6c11,0,22,0,33,0c6.7,0,7.7-1.1,7.7-7.8
		c0-36.9,0-73.7,0.1-110.6c0-3.7,0.4-7.5,1.4-11c2.2-7.1,9.1-11.9,16.4-12.3c9.7-0.5,18.5,6.4,20.4,15.9c0.8,3.9,0.6,7.8,0.6,11.7
		c-0.4,20.3,0,40.6,0,60.9v72.9v6.6C1946,994.2,1946,995.5,1945.8,996.8 M1502.4,966.5c22.5,0,45-0.1,67.5,0.1c4,0,6.1-0.8,6.2-5.4
		c0.5-18.6,0.8-37.2-3.2-55.5c-4.8-22.1-14-41.6-33-55.1c-18-12.8-38.7-15.8-60.3-16.3c-22.6-0.6-42.1,6.7-58.5,21.7
		c-19.5,17.7-28.7,43.5-27.5,69.6c0.4,9.5,3.1,19.2,9.3,26.5c6.5,7.6,16.3,11.9,26.1,13.6c11.8,2,23.9,0.6,35.8,0.8
		C1477.4,966.8,1489.9,966.5,1502.4,966.5"/>
	<path class="st0" d="M1257.8,1306.3c-3.6-1.8-5.1-4.7-5.8-8.7c-9.4-51.3-19-102.6-28.5-153.8c-1.4-7.4,0.9-10.2,8.3-10.2
		c5,0,10.1-0.2,15,0.6c9,1.3,15,6.8,16.6,15.8c2.9,16.8,5.3,33.7,7.7,50.7c3.1,22.4,6.1,44.9,10.2,67.4c1.5-7.3,2.8-14.7,4.4-22
		c7.2-33.7,14.4-67.5,21.7-101.2c1.8-8.4,5.5-11.2,14.1-11.3c3.9-0.1,7.8-0.1,11.7,0c6.8,0.3,10.2,2.9,11.6,9.7
		c8.6,40.3,17.2,80.6,25.7,120.8c0.3,1.2,0.7,2.4,2.1,3.6c1.2-9.2,2.3-18.3,3.6-27.5c4.2-29.8,8.2-59.6,12.6-89.4
		c1.5-9.7,8.7-16.1,18.7-17.1c4.1-0.4,8.2-0.3,12.3-0.1c5.5,0.3,7.7,3,6.8,8.4c-3.9,22.9-7.9,45.7-11.9,68.6
		c-5,28.7-10.2,57.4-15.1,86.1c-0.7,4-1.8,7.5-5.5,9.6h-27.9c-0.4-0.3-0.8-0.8-1.3-0.9c-11.5-2.5-17.8-9.7-20.1-21.1
		c-2.4-11.8-5.2-23.6-7.6-35.4c-4.1-20.1-8-40.2-12.1-60.8c-0.5,1.2-1.1,2.2-1.3,3.2c-5.3,27.7-10.6,55.4-15.9,83.1
		c-0.7,3.5-1.6,6.9-2.2,10.4c-2,12.1-9.8,18.6-21.1,21.7H1257.8z"/>
	<path class="st0" d="M1811.9,1306.3c-0.3-2.2-0.7-4.4-0.7-6.6c0-49.1,0-98.2,0-147.4c0-13.5,5.4-19.1,19-18.8
		c17.3,0.4,34.7,0,51.8,2.1c35.7,4.4,60.2,31.5,62.9,67.5c0.2,2.4,0.8,4.7,1.2,7v17.9c-0.8,4.7-1.6,9.4-2.3,14.2
		c-4.9,31.5-25.3,53.6-56.3,60.6c-6.4,1.5-13.1,2.3-19.6,3.4H1811.9z M1849.8,1275c6-0.4,11.1-0.5,16.2-1
		c17.8-1.7,30.5-10.6,36.1-27.8c5.7-17.8,5.7-35.9,0.2-53.8c-4.2-13.7-13.8-22.3-27.7-25.7c-4.5-1.1-9.2-1.5-13.8-1.9
		c-7.9-0.7-11,2.2-11,10.2c0,23.1,0,46.2,0,69.3V1275z"/>
	<path class="st0" d="M1086.7,1305.6c-6,0-10.4-0.9-15.6-2.3c-29.1-7.8-45.2-28.1-51.7-56.4c-5.4-23.6-4.7-47.3,4.6-70.1
		c13.1-31.8,41.8-44.8,72.4-43c43,2.5,64.6,33.5,68.7,68.6c2.4,20.7,1.3,40.9-7.1,60.2c-11,25.3-30.3,39.8-58,42.7
		c-1.4,0.1-3,0.3-4.5,0.3H1086.7z M1054.3,1219C1054.8,1219.1,1053.8,1218.9,1054.3,1219c0.1,12.2,1.7,24.1,7.3,35.1
		c6.1,12,15.7,19.4,29.5,19.5c14,0,24.2-7.2,29.8-19.8c9.9-22.1,10.1-44.7,0.9-67.1c-5.5-13.4-16-20.9-30.8-20.9
		c-15,0-25.7,8-30.8,21.7C1056.6,1197.5,1055,1205.3,1054.3,1219"/>
	<path class="st0" d="M1483.5,1306.3c-5.4-2.8-6.2-6.8-4.4-12.5c14.3-45.3,28.4-90.6,42.6-135.9c5-15.9,16.5-24.2,33.3-24.4
		c4.1,0,8.2,0.2,12.3-0.1c6-0.5,9.1,2.2,10.8,7.9c13.3,43.2,26.9,86.4,40.4,129.6c2.6,8.3,5,16.7,7.9,24.9c1.6,4.6,0.7,7.9-3.3,10.4
		h-24.6c-8.5-2.2-12.7-8.1-14.3-16.5c-1.3-6.7-3.3-13.3-4.9-20c-0.9-3.6-2.7-5.1-6.6-5.1c-13.9,0.2-27.9,0.2-41.8,0
		c-4.2-0.1-6,1.6-6.9,5.5c-1.4,6.3-3.6,12.5-4.7,18.8c-1.5,8.3-5.3,14.4-13.5,17.2H1483.5z M1552.5,1166.5c-0.5,0-0.9,0.1-1.4,0.1
		c-0.3,0.5-0.6,0.9-0.7,1.4c-5.2,20.1-10.4,40.1-15.4,60.2c-1.2,4.6,1,6.6,5.6,6.5c7.1-0.1,14.1,0,21.2,0c7,0,8.2-1.6,6.4-8.4
		c-3-11.6-6.2-23.2-9.3-34.9C1556.7,1183.2,1554.6,1174.8,1552.5,1166.5"/>
	<path class="st0" d="M882.5,1306.3c-7-1.5-14.1-2.7-21.1-4.5c-4.5-1.2-8.9-2.9-13-4.9c-13.4-6.7-16-25.1-5.2-35.4
		c3.6-3.5,7.3-2.6,11.1,0c9.1,6.4,19,11.1,30.2,11.8c5.3,0.3,10.8-0.4,15.9-1.6c6.3-1.5,10.3-6,11-12.6c0.7-6.5-2.4-11.4-8-14.1
		c-9.2-4.5-18.7-8.2-27.9-12.6c-8.2-3.9-16.9-7.3-24.1-12.6c-25-18.4-25.2-54.8-0.2-73.2c22.4-16.5,47-16.8,71.8-5.9
		c11.4,5.1,15,19.2,8.9,30c-3.4,5.9-7,6.9-12.8,3.4c-10.7-6.5-22-9.8-34.6-7.6c-7.9,1.3-13,5.8-14.1,12.3c-1,5.8,2,11.4,9.5,14.8
		c13,5.9,26.3,11,39.4,16.8c14.5,6.3,25.5,16.1,28.8,32.3c5.7,28-9.8,52.2-38.4,60.1c-5.7,1.6-11.6,2.4-17.3,3.5H882.5z"/>
	<path class="st0" d="M1698,1306.3c-4.3-2.4-5.7-5.9-5.7-10.9c0.2-46.7,0.1-93.4,0.1-140.2c0-14.3,7.4-21.6,21.7-21.7
		c16.6-0.1,16.6-0.1,16.6,16.8c0,43.6,0,87.1,0,130.7c0,15.9-2.6,19.7-17.1,25.4H1698z"/>
	<path class="st0" d="M495.9,1095.9c-74.7,0-149.3-0.6-223.9,0.3c-27.6,0.4-52.9-5.3-77.6-16.7c-41.4-19.1-76.8-45.2-101-84.7
		c-10-16.3-17-33.8-21.2-52.4c-2.4-10.8,1.9-17.1,12.7-18.3c4.2-0.5,8.5-0.4,12.8-0.4c105.4,0,210.7,0,316.1,0
		c46.2,0,92.3-0.7,138.5,0c49.3,0.8,95.5,13.6,136.5,41.8c39.1,26.9,61.2,64.4,67.4,111.4c0.1,1.1,0.4,2.2,0.6,3.3
		c1.5,9.2-2.4,14.2-11.9,14.8c-6.7,0.4-13.4,0.7-20.1,0.7c-76.3,0-152.7,0-229,0V1095.9z"/>
	<path class="st0" d="M493.7,1133.8c76.9,0,153.8,0,230.7,0c5.4,0,10.8,0.1,16.2,0.2c14.2,0.4,17.3,3.7,15.7,17.9
		c-3.5,30.9-14.9,58.5-34.8,82.5c-21.3,25.6-48.6,42.4-79.3,54c-30,11.3-60.9,17.2-93.1,17.1c-119.1-0.3-238.3-0.1-357.4,0
		c-33.7,0-67.4,0-101.1-0.1c-17.2,0-21.7-6-17.3-22.5c13.8-52.2,46.4-89.7,91.7-117.3c21.6-13.1,44.5-23,68.8-29.7
		c5.6-1.5,11.7-2,17.6-2C332.1,1133.8,412.9,1133.8,493.7,1133.8"/>
	<path class="st0" d="M1095.5,965.1c11.9,2.8,27.3,0.3,39.6,0.3h41.2h81.7c0-2.2,0-4.3,0-6.4c0-37.2-0.1-74.5,0-111.7
		c0-16.5,13.7-26.3,29.3-21.2c8.6,2.8,13.9,9.7,13.9,18.8c0.1,47.7,0.1,95.3,0,143c0,12-9.7,21.2-22,21.3c-38.9,0-77.8,0-116.7,0
		c-101.8,0-203.6,0-305.5,0c-16.5,0-26.3-13.4-21.4-29.1c2.7-8.9,9.9-14.2,19.7-14.2c36.5-0.1,73-0.1,109.5-0.1
		c25.6,0,68.2,9.6,86.3-12.7c32.4-40,4.6-97.2-39.9-112.5c-35.1-12.1-70.7-13.7-105.1,3.6c-7.9,4-14.9,9.7-22.3,14.7
		c-8.4,5.7-18.7,6-26,0.5c-7.4-5.5-10.9-16.1-7.5-25c1.2-3.1,3.3-6.3,5.9-8.5c35.5-29.7,76.5-41.4,122.4-36.9
		c22.6,2.2,44.9,6,64.5,17.7c50.5,29.9,79.7,90,57.3,147.3C1098.9,957.5,1096.6,961.2,1095.5,965.1"/>
	<path class="st0" d="M1235.4,1070.1c0,14.3-10.5,25.6-23.9,25.7c-13.4,0.1-24.2-11.5-24-26c0.1-13.7,11.2-24.8,24.7-24.9
		C1225.6,1044.8,1235.4,1055.5,1235.4,1070.1"/>
	<path class="st0" d="M1296,1069.9c0.1,14.5-10.1,25.7-23.5,25.9c-13.1,0.2-24.2-11.3-24.5-25.3c-0.2-13.6,11.3-25.6,24.7-25.6
		C1286.4,1044.8,1295.9,1055,1296,1069.9"/>
</g>
</svg>
